<?xml version="1.0" encoding="UTF-8" standalone="no"?>
<!-- Created with Inkscape (http://www.inkscape.org/) -->

<svg
   xmlns:dc="http://purl.org/dc/elements/1.1/"
   xmlns:cc="http://creativecommons.org/ns#"
   xmlns:rdf="http://www.w3.org/1999/02/22-rdf-syntax-ns#"
   xmlns:svg="http://www.w3.org/2000/svg"
   xmlns="http://www.w3.org/2000/svg"
   xmlns:sodipodi="http://sodipodi.sourceforge.net/DTD/sodipodi-0.dtd"
   xmlns:inkscape="http://www.inkscape.org/namespaces/inkscape"
   width="38"
   height="36"
   id="svg2"
   version="1.1"
   inkscape:version="0.48.2 r9819"
   sodipodi:docname="diagdr.svg">
  <defs
     id="defs4" />
  <sodipodi:namedview
     id="base"
     pagecolor="#ffffff"
     bordercolor="#666666"
     borderopacity="1.0"
     inkscape:pageopacity="0.0"
     inkscape:pageshadow="2"
     inkscape:zoom="7.919596"
     inkscape:cx="5.1563484"
     inkscape:cy="17.960972"
     inkscape:document-units="px"
     inkscape:current-layer="layer1"
     showgrid="false"
     width="33px"
     inkscape:window-width="1264"
     inkscape:window-height="693"
     inkscape:window-x="0"
     inkscape:window-y="0"
     inkscape:window-maximized="0" />
  <metadata
     id="metadata7">
    <rdf:RDF>
      <cc:Work
         rdf:about="">
        <dc:format>image/svg+xml</dc:format>
        <dc:type
           rdf:resource="http://purl.org/dc/dcmitype/StillImage" />
        <dc:title />
      </cc:Work>
    </rdf:RDF>
  </metadata>
  <g
     inkscape:label="Layer 1"
     inkscape:groupmode="layer"
     id="layer1"
     transform="translate(0,-1016.3622)">
    <path
       style="fill:none;stroke:#000000;stroke-width:0.5;stroke-linecap:butt;stroke-linejoin:miter;stroke-miterlimit:4;stroke-opacity:1;stroke-dasharray:1.49999996, 0.49999999;stroke-dashoffset:0"
       d="m 13.73745,1018.0049 c 0,32.9329 0,32.7675 0,32.7675"
       id="path2996"
       inkscape:connector-curvature="0" />
    <path
       style="fill:none;stroke:#000000;stroke-width:0.5;stroke-linecap:butt;stroke-linejoin:miter;stroke-miterlimit:4;stroke-opacity:1;stroke-dasharray:1.5, 0.5;stroke-dashoffset:0"
       d="m 2.0145126,1028.3438 c 34.5272834,0 34.3537784,0 34.3537784,0"
       id="path3937"
       inkscape:connector-curvature="0" />
    <path
       inkscape:connector-curvature="0"
       id="path3939"
       d="m 13.653267,1017.9359 c 0,21.6454 0,21.5367 0,21.5367"
       style="fill:none;stroke:#000000;stroke-width:0.5;stroke-linecap:butt;stroke-linejoin:miter;stroke-miterlimit:4;stroke-opacity:1;stroke-dasharray:1.5, 0.5;stroke-dashoffset:0" />
    <path
       style="fill:none;stroke:#000000;stroke-width:0.49999994;stroke-linecap:butt;stroke-linejoin:miter;stroke-miterlimit:4;stroke-opacity:1;stroke-dasharray:1.49999997, 0.49999999;stroke-dashoffset:0"
       d="m 25.101666,1018.0049 c 0,32.6805 0,32.5164 0,32.5164"
       id="path3952"
       inkscape:connector-curvature="0" />
    <path
       inkscape:connector-curvature="0"
       id="path3962"
       d="m 2.0145126,1039.2029 c 34.5272834,0 34.3537784,0 34.3537784,0"
       style="fill:none;stroke:#000000;stroke-width:0.5;stroke-linecap:butt;stroke-linejoin:miter;stroke-miterlimit:4;stroke-opacity:1;stroke-dasharray:1.5, 0.5;stroke-dashoffset:0" />
    <path
       sodipodi:type="arc"
       style="fill:#000000;fill-opacity:1;fill-rule:evenodd;stroke:none"
       id="path3964"
       sodipodi:cx="8.4600277"
       sodipodi:cy="16.595173"
       sodipodi:rx="5.6821079"
       sodipodi:ry="1.3889598"
       d="m 14.142136,16.595173 a 5.6821079,1.3889598 0 1 1 -11.3642162,0 5.6821079,1.3889598 0 1 1 11.3642162,0 z"
       transform="translate(-0.56821086,1011.9023)" />
    <path
       sodipodi:type="arc"
       style="fill:#000000;fill-opacity:1;fill-rule:evenodd;stroke:none"
       id="path3968"
       sodipodi:cx="8.4600277"
       sodipodi:cy="16.595173"
       sodipodi:rx="5.6821079"
       sodipodi:ry="1.3889598"
       d="m 14.142136,16.595173 a 5.6821079,1.3889598 0 1 1 -11.3642162,0 5.6821079,1.3889598 0 1 1 11.3642162,0 z"
       transform="matrix(0,0.93888889,-0.93888889,0,29.218085,1015.2826)" />
    <path
       transform="matrix(0,0.93888889,-0.93888889,0,29.218085,1025.6998)"
       d="m 14.142136,16.595173 a 5.6821079,1.3889598 0 1 1 -11.3642162,0 5.6821079,1.3889598 0 1 1 11.3642162,0 z"
       sodipodi:ry="1.3889598"
       sodipodi:rx="5.6821079"
       sodipodi:cy="16.595173"
       sodipodi:cx="8.4600277"
       id="path4724"
       style="fill:#000000;fill-opacity:1;fill-rule:evenodd;stroke:none"
       sodipodi:type="arc" />
    <path
       transform="translate(11.048543,1011.9023)"
       d="m 14.142136,16.595173 a 5.6821079,1.3889598 0 1 1 -11.3642162,0 5.6821079,1.3889598 0 1 1 11.3642162,0 z"
       sodipodi:ry="1.3889598"
       sodipodi:rx="5.6821079"
       sodipodi:cy="16.595173"
       sodipodi:cx="8.4600277"
       id="path4737"
       style="fill:#000000;fill-opacity:1;fill-rule:evenodd;stroke:none"
       sodipodi:type="arc" />
    <path
       inkscape:connector-curvature="0"
       id="path2994"
       d="m 2.2469646,1018.0049 c 0,32.0496 0,31.8886 0,31.8886"
       style="fill:none;stroke:#000000;stroke-width:0.49999997;stroke-linecap:butt;stroke-linejoin:miter;stroke-miterlimit:4;stroke-opacity:1;stroke-dasharray:1.49999998, 0.5;stroke-dashoffset:0" />
    <path
       style="fill:none;stroke:#000000;stroke-width:0.5;stroke-linecap:butt;stroke-linejoin:miter;stroke-miterlimit:4;stroke-opacity:1;stroke-dasharray:1.5, 0.5;stroke-dashoffset:0"
       d="m 2.0145126,1050.3146 c 34.5272834,0 34.3537784,0 34.3537784,0"
       id="path2998"
       inkscape:connector-curvature="0" />
    <path
       sodipodi:type="arc"
       style="fill:#000000;fill-opacity:1;fill-rule:evenodd;stroke:none"
       id="path3004"
       sodipodi:cx="8.4600277"
       sodipodi:cy="16.595173"
       sodipodi:rx="5.6821079"
       sodipodi:ry="1.3889598"
       d="m 14.142136,16.595173 a 5.6821079,1.3889598 0 1 1 -11.3642162,0 5.6821079,1.3889598 0 1 1 11.3642162,0 z"
       transform="translate(22.665298,1022.6352)" />
    <path
       transform="translate(10.922275,1033.7469)"
       d="m 14.142136,16.595173 a 5.6821079,1.3889598 0 1 1 -11.3642162,0 5.6821079,1.3889598 0 1 1 11.3642162,0 z"
       sodipodi:ry="1.3889598"
       sodipodi:rx="5.6821079"
       sodipodi:cy="16.595173"
       sodipodi:cx="8.4600277"
       id="path3006"
       style="fill:#000000;fill-opacity:1;fill-rule:evenodd;stroke:none"
       sodipodi:type="arc" />
    <path
       sodipodi:type="arc"
       style="fill:#000000;fill-opacity:1;fill-rule:evenodd;stroke:none"
       id="path3008"
       sodipodi:cx="8.4600277"
       sodipodi:cy="16.595173"
       sodipodi:rx="5.6821079"
       sodipodi:ry="1.3889598"
       d="m 14.142136,16.595173 a 5.6821079,1.3889598 0 1 1 -11.3642162,0 5.6821079,1.3889598 0 1 1 11.3642162,0 z"
       transform="matrix(0,0.93888889,-0.93888889,0,17.853869,1036.9377)" />
  </g>
</svg>
