<?xml version="1.0" encoding="UTF-8" standalone="no"?>
<!-- Created with Inkscape (http://www.inkscape.org/) -->

<svg
   xmlns:dc="http://purl.org/dc/elements/1.1/"
   xmlns:cc="http://creativecommons.org/ns#"
   xmlns:rdf="http://www.w3.org/1999/02/22-rdf-syntax-ns#"
   xmlns:svg="http://www.w3.org/2000/svg"
   xmlns="http://www.w3.org/2000/svg"
   xmlns:sodipodi="http://sodipodi.sourceforge.net/DTD/sodipodi-0.dtd"
   xmlns:inkscape="http://www.inkscape.org/namespaces/inkscape"
   width="36"
   height="23"
   id="svg2"
   version="1.1"
   inkscape:version="0.48.2 r9819"
   sodipodi:docname="hrz_star_pair.eps">
  <defs
     id="defs4" />
  <sodipodi:namedview
     id="base"
     pagecolor="#ffffff"
     bordercolor="#666666"
     borderopacity="1.0"
     inkscape:pageopacity="0.0"
     inkscape:pageshadow="2"
     inkscape:zoom="15.839192"
     inkscape:cx="19.630853"
     inkscape:cy="12.751374"
     inkscape:document-units="px"
     inkscape:current-layer="layer1"
     showgrid="false"
     width="33px"
     inkscape:window-width="1264"
     inkscape:window-height="693"
     inkscape:window-x="0"
     inkscape:window-y="0"
     inkscape:window-maximized="0" />
  <metadata
     id="metadata7">
    <rdf:RDF>
      <cc:Work
         rdf:about="">
        <dc:format>image/svg+xml</dc:format>
        <dc:type
           rdf:resource="http://purl.org/dc/dcmitype/StillImage" />
        <dc:title></dc:title>
      </cc:Work>
    </rdf:RDF>
  </metadata>
  <g
     inkscape:label="Layer 1"
     inkscape:groupmode="layer"
     id="layer1"
     transform="translate(0,-1029.3622)">
    <path
       style="fill:none;stroke:#000000;stroke-width:0.5;stroke-linecap:butt;stroke-linejoin:miter;stroke-miterlimit:4;stroke-opacity:1;stroke-dasharray:1.5, 0.5;stroke-dashoffset:0"
       d="m 0.62555285,1040.4656 c 34.52728315,0 34.35377815,0 34.35377815,0"
       id="path3937"
       inkscape:connector-curvature="0" />
    <path
       inkscape:connector-curvature="0"
       id="path3939"
       d="m 12.264307,1030.0577 c 0,21.6454 0,21.5367 0,21.5367"
       style="fill:none;stroke:#000000;stroke-width:0.5;stroke-linecap:butt;stroke-linejoin:miter;stroke-miterlimit:4;stroke-opacity:1;stroke-dasharray:1.5, 0.5;stroke-dashoffset:0" />
    <path
       style="fill:none;stroke:#000000;stroke-width:0.5;stroke-linecap:butt;stroke-linejoin:miter;stroke-miterlimit:4;stroke-opacity:1;stroke-dasharray:1.5, 0.5;stroke-dashoffset:0"
       d="m 23.712704,1030.0577 c 0,21.6454 0,21.5367 0,21.5367"
       id="path3952"
       inkscape:connector-curvature="0" />
    <path
       style="fill:none;stroke:#000000;stroke-width:0.5;stroke-linecap:butt;stroke-linejoin:miter;stroke-miterlimit:4;stroke-opacity:1;stroke-dasharray:1.5, 0.5;stroke-dashoffset:0"
       d="m 0.81591075,1030.0577 c 0,21.6454 0,21.5367 0,21.5367"
       id="path3954"
       inkscape:connector-curvature="0" />
    <path
       inkscape:connector-curvature="0"
       id="path3956"
       d="m 35.161098,1030.0577 c 0,21.6454 0,21.5367 0,21.5367"
       style="fill:none;stroke:#000000;stroke-width:0.5;stroke-linecap:butt;stroke-linejoin:miter;stroke-miterlimit:4;stroke-opacity:1;stroke-dasharray:1.5, 0.5;stroke-dashoffset:0" />
    <path
       inkscape:connector-curvature="0"
       id="path3960"
       d="m 0.62555285,1030.2378 c 34.52728315,0 34.35377815,0 34.35377815,0"
       style="fill:none;stroke:#000000;stroke-width:0.5;stroke-linecap:butt;stroke-linejoin:miter;stroke-miterlimit:4;stroke-opacity:1;stroke-dasharray:1.5, 0.5;stroke-dashoffset:0" />
    <path
       inkscape:connector-curvature="0"
       id="path3962"
       d="m 0.62555285,1051.3247 c 34.52728315,0 34.35377815,0 34.35377815,0"
       style="fill:none;stroke:#000000;stroke-width:0.5;stroke-linecap:butt;stroke-linejoin:miter;stroke-miterlimit:4;stroke-opacity:1;stroke-dasharray:1.5, 0.5;stroke-dashoffset:0" />
    <path
       sodipodi:type="arc"
       style="fill:#000000;fill-opacity:1;fill-rule:evenodd;stroke:none"
       id="path3964"
       sodipodi:cx="8.4600277"
       sodipodi:cy="16.595173"
       sodipodi:rx="5.6821079"
       sodipodi:ry="1.3889598"
       d="m 14.142136,16.595173 a 5.6821079,1.3889598 0 1 1 -11.3642162,0 5.6821079,1.3889598 0 1 1 11.3642162,0 z"
       transform="translate(-1.9571706,1024.0241)" />
    <path
       sodipodi:type="arc"
       style="fill:#000000;fill-opacity:1;fill-rule:evenodd;stroke:none"
       id="path3968"
       sodipodi:cx="8.4600277"
       sodipodi:cy="16.595173"
       sodipodi:rx="5.6821079"
       sodipodi:ry="1.3889598"
       d="m 14.142136,16.595173 a 5.6821079,1.3889598 0 1 1 -11.3642162,0 5.6821079,1.3889598 0 1 1 11.3642162,0 z"
       transform="matrix(0,0.93888889,-0.93888889,0,27.829125,1027.4044)" />
    <path
       transform="matrix(0,0.93888889,-0.93888889,0,27.829125,1037.8216)"
       d="m 14.142136,16.595173 a 5.6821079,1.3889598 0 1 1 -11.3642162,0 5.6821079,1.3889598 0 1 1 11.3642162,0 z"
       sodipodi:ry="1.3889598"
       sodipodi:rx="5.6821079"
       sodipodi:cy="16.595173"
       sodipodi:cx="8.4600277"
       id="path4724"
       style="fill:#000000;fill-opacity:1;fill-rule:evenodd;stroke:none"
       sodipodi:type="arc" />
    <path
       transform="matrix(-1,0,0,1,37.985245,1024.1504)"
       d="m 14.142136,16.595173 a 5.6821079,1.3889598 0 1 1 -11.3642162,0 5.6821079,1.3889598 0 1 1 11.3642162,0 z"
       sodipodi:ry="1.3889598"
       sodipodi:rx="5.6821079"
       sodipodi:cy="16.595173"
       sodipodi:cx="8.4600277"
       id="path4726"
       style="fill:#000000;fill-opacity:1;fill-rule:evenodd;stroke:none"
       sodipodi:type="arc" />
    <path
       transform="matrix(0,0.93888889,0.93888889,0,8.1989494,1027.5307)"
       d="m 14.142136,16.595173 a 5.6821079,1.3889598 0 1 1 -11.3642162,0 5.6821079,1.3889598 0 1 1 11.3642162,0 z"
       sodipodi:ry="1.3889598"
       sodipodi:rx="5.6821079"
       sodipodi:cy="16.595173"
       sodipodi:cx="8.4600277"
       id="path4728"
       style="fill:#000000;fill-opacity:1;fill-rule:evenodd;stroke:none"
       sodipodi:type="arc" />
    <path
       sodipodi:type="arc"
       style="fill:#000000;fill-opacity:1;fill-rule:evenodd;stroke:none"
       id="path4730"
       sodipodi:cx="8.4600277"
       sodipodi:cy="16.595173"
       sodipodi:rx="5.6821079"
       sodipodi:ry="1.3889598"
       d="m 14.142136,16.595173 a 5.6821079,1.3889598 0 1 1 -11.3642162,0 5.6821079,1.3889598 0 1 1 11.3642162,0 z"
       transform="matrix(0,0.93888889,0.93888889,0,8.1989494,1037.9479)" />
    <path
       transform="translate(9.6595834,1024.0241)"
       d="m 14.142136,16.595173 a 5.6821079,1.3889598 0 1 1 -11.3642162,0 5.6821079,1.3889598 0 1 1 11.3642162,0 z"
       sodipodi:ry="1.3889598"
       sodipodi:rx="5.6821079"
       sodipodi:cy="16.595173"
       sodipodi:cx="8.4600277"
       id="path4737"
       style="fill:#000000;fill-opacity:1;fill-rule:evenodd;stroke:none"
       sodipodi:type="arc" />
  </g>
</svg>
