<?xml version="1.0" encoding="UTF-8" standalone="no"?>
<!-- Created with Inkscape (http://www.inkscape.org/) -->

<svg
   xmlns:dc="http://purl.org/dc/elements/1.1/"
   xmlns:cc="http://creativecommons.org/ns#"
   xmlns:rdf="http://www.w3.org/1999/02/22-rdf-syntax-ns#"
   xmlns:svg="http://www.w3.org/2000/svg"
   xmlns="http://www.w3.org/2000/svg"
   xmlns:sodipodi="http://sodipodi.sourceforge.net/DTD/sodipodi-0.dtd"
   xmlns:inkscape="http://www.inkscape.org/namespaces/inkscape"
   width="25"
   height="28"
   id="svg2985"
   version="1.1"
   inkscape:version="0.48.2 r9819"
   sodipodi:docname="hrz_plqt.eps">
  <defs
     id="defs2987" />
  <sodipodi:namedview
     id="base"
     pagecolor="#ffffff"
     bordercolor="#666666"
     borderopacity="1.0"
     inkscape:pageopacity="0.0"
     inkscape:pageshadow="2"
     inkscape:zoom="11"
     inkscape:cx="6.7936283"
     inkscape:cy="13.926422"
     inkscape:current-layer="layer1"
     showgrid="true"
     inkscape:document-units="px"
     inkscape:grid-bbox="true"
     inkscape:window-width="1280"
     inkscape:window-height="701"
     inkscape:window-x="0"
     inkscape:window-y="0"
     inkscape:window-maximized="1" />
  <metadata
     id="metadata2990">
    <rdf:RDF>
      <cc:Work
         rdf:about="">
        <dc:format>image/svg+xml</dc:format>
        <dc:type
           rdf:resource="http://purl.org/dc/dcmitype/StillImage" />
        <dc:title></dc:title>
      </cc:Work>
    </rdf:RDF>
  </metadata>
  <g
     id="layer1"
     inkscape:label="Layer 1"
     inkscape:groupmode="layer"
     transform="translate(0,-36)">
    <g
       id="g4662"
       transform="matrix(0,1,-1,0,60.9204,34.102218)">
      <rect
         transform="matrix(0,1,-1,0,0,0)"
         y="-27.261747"
         x="36.379436"
         height="22.719431"
         width="23.534393"
         id="rect3763"
         style="fill:#ffffff;fill-opacity:1;fill-rule:evenodd;stroke:#000000;stroke-width:0.34999996;stroke-linecap:round;stroke-linejoin:round;stroke-miterlimit:4;stroke-opacity:1;stroke-dasharray:1.40000001, 0.7;stroke-dashoffset:0" />
      <path
         transform="matrix(1.2272727,0,0,1,1.5330579,31.454545)"
         d="m 4.4545455,16.818182 c 0,6.627417 -0.8954305,12 -2,12 -1.1045695,0 -2,-5.372583 -2,-12 0,-6.627417 0.8954305,-12 2,-12 1.1045695,0 2,5.372583 2,12 z"
         sodipodi:ry="12"
         sodipodi:rx="2"
         sodipodi:cy="16.818182"
         sodipodi:cx="2.4545455"
         id="path4611"
         style="fill:#000000;fill-opacity:1;fill-rule:evenodd;stroke:none"
         sodipodi:type="arc" />
      <path
         sodipodi:type="arc"
         style="fill:#000000;fill-opacity:1;fill-rule:evenodd;stroke:none"
         id="path4613"
         sodipodi:cx="2.4545455"
         sodipodi:cy="16.818182"
         sodipodi:rx="2"
         sodipodi:ry="12"
         d="m 4.4545455,16.818182 c 0,6.627417 -0.8954305,12 -2,12 -1.1045695,0 -2,-5.372583 -2,-12 0,-6.627417 0.8954305,-12 2,-12 1.1045695,0 2,5.372583 2,12 z"
         transform="matrix(1.2272727,0,0,1,24.35124,31.454545)" />
    </g>
  </g>
</svg>
