<?xml version="1.0" encoding="UTF-8" standalone="no"?>
<!-- Created with Inkscape (http://www.inkscape.org/) -->

<svg
   xmlns:dc="http://purl.org/dc/elements/1.1/"
   xmlns:cc="http://creativecommons.org/ns#"
   xmlns:rdf="http://www.w3.org/1999/02/22-rdf-syntax-ns#"
   xmlns:svg="http://www.w3.org/2000/svg"
   xmlns="http://www.w3.org/2000/svg"
   xmlns:sodipodi="http://sodipodi.sourceforge.net/DTD/sodipodi-0.dtd"
   xmlns:inkscape="http://www.inkscape.org/namespaces/inkscape"
   width="47.200001"
   height="25"
   id="svg2"
   version="1.1"
   inkscape:version="0.48.2 r9819"
   sodipodi:docname="hrzmv2.svg">
  <defs
     id="defs4" />
  <sodipodi:namedview
     id="base"
     pagecolor="#ffffff"
     bordercolor="#666666"
     borderopacity="1.0"
     inkscape:pageopacity="0.0"
     inkscape:pageshadow="2"
     inkscape:zoom="7.9195959"
     inkscape:cx="38.193379"
     inkscape:cy="18.916783"
     inkscape:document-units="px"
     inkscape:current-layer="layer1"
     showgrid="false"
     width="33px"
     inkscape:window-width="1280"
     inkscape:window-height="701"
     inkscape:window-x="0"
     inkscape:window-y="0"
     inkscape:window-maximized="1" />
  <metadata
     id="metadata7">
    <rdf:RDF>
      <cc:Work
         rdf:about="">
        <dc:format>image/svg+xml</dc:format>
        <dc:type
           rdf:resource="http://purl.org/dc/dcmitype/StillImage" />
        <dc:title />
      </cc:Work>
    </rdf:RDF>
  </metadata>
  <g
     inkscape:label="Layer 1"
     inkscape:groupmode="layer"
     id="layer1"
     transform="translate(0,-1027.3622)">
    <path
       style="fill:none;stroke:#000000;stroke-width:0.5;stroke-linecap:butt;stroke-linejoin:miter;stroke-miterlimit:4;stroke-opacity:1;stroke-dasharray:1.50000002, 0.50000001;stroke-dashoffset:0"
       d="m 46.45053,1039.5816 c -45.614978,0 -45.385755,0 -45.385755,0"
       id="path3937"
       inkscape:connector-curvature="0" />
    <path
       inkscape:connector-curvature="0"
       id="path3939"
       d="m 34.867432,1029.1737 c 0,21.6454 0,21.5367 0,21.5367"
       style="fill:none;stroke:#000000;stroke-width:0.5;stroke-linecap:butt;stroke-linejoin:miter;stroke-miterlimit:4;stroke-opacity:1;stroke-dasharray:1.5, 0.5;stroke-dashoffset:0" />
    <path
       style="fill:none;stroke:#000000;stroke-width:0.5;stroke-linecap:butt;stroke-linejoin:miter;stroke-miterlimit:4;stroke-opacity:1;stroke-dasharray:1.5, 0.5;stroke-dashoffset:0"
       d="m 23.474694,1029.1737 c 0,21.6454 0,21.5367 0,21.5367"
       id="path3952"
       inkscape:connector-curvature="0" />
    <path
       inkscape:connector-curvature="0"
       id="path3956"
       d="m 12.081954,1029.1737 c 0,21.6454 0,21.5367 0,21.5367"
       style="fill:none;stroke:#000000;stroke-width:0.5;stroke-linecap:butt;stroke-linejoin:miter;stroke-miterlimit:4;stroke-opacity:1;stroke-dasharray:1.5, 0.5;stroke-dashoffset:0" />
    <path
       inkscape:connector-curvature="0"
       id="path3960"
       d="m 46.45053,1029.3538 c -45.866968,0 -45.636479,0 -45.636479,0"
       style="fill:none;stroke:#000000;stroke-width:0.5;stroke-linecap:butt;stroke-linejoin:miter;stroke-miterlimit:4;stroke-opacity:1;stroke-dasharray:1.49999998, 0.49999999;stroke-dashoffset:0" />
    <path
       inkscape:connector-curvature="0"
       id="path3962"
       d="m 46.45053,1050.4407 c -45.992965,0 -45.761843,0 -45.761843,0"
       style="fill:none;stroke:#000000;stroke-width:0.5;stroke-linecap:butt;stroke-linejoin:miter;stroke-miterlimit:4;stroke-opacity:1;stroke-dasharray:1.49999998, 0.5;stroke-dashoffset:0" />
    <path
       sodipodi:type="arc"
       style="fill:#000000;fill-opacity:1;fill-rule:evenodd;stroke:none"
       id="path3964"
       sodipodi:cx="8.4600277"
       sodipodi:cy="16.595173"
       sodipodi:rx="5.6821079"
       sodipodi:ry="1.3889598"
       d="m 14.142136,16.595173 a 5.6821079,1.3889598 0 1 1 -11.3642162,0 5.6821079,1.3889598 0 1 1 11.3642162,0 z"
       transform="matrix(-1,0,0,1,49.033253,1023.1401)" />
    <path
       transform="matrix(-1,0,0,1,14.688066,1023.1401)"
       d="m 14.142136,16.595173 a 5.6821079,1.3889598 0 1 1 -11.3642162,0 5.6821079,1.3889598 0 1 1 11.3642162,0 z"
       sodipodi:ry="1.3889598"
       sodipodi:rx="5.6821079"
       sodipodi:cy="16.595173"
       sodipodi:cx="8.4600277"
       id="path3966"
       style="fill:#000000;fill-opacity:1;fill-rule:evenodd;stroke:none"
       sodipodi:type="arc" />
    <path
       sodipodi:type="arc"
       style="fill:#000000;fill-opacity:1;fill-rule:evenodd;stroke:none"
       id="path3968"
       sodipodi:cx="8.4600277"
       sodipodi:cy="16.595173"
       sodipodi:rx="5.6821079"
       sodipodi:ry="1.3889598"
       d="m 14.142136,16.595173 a 5.6821079,1.3889598 0 1 1 -11.3642162,0 5.6821079,1.3889598 0 1 1 11.3642162,0 z"
       transform="matrix(0,0.88888889,0.88888889,0,20.041642,1027.2908)"
       inkscape:transform-center-y="5.0508465" />
    <path
       transform="matrix(-1,0,0,1,37.542767,1023.2664)"
       d="m 14.142136,16.595173 a 5.6821079,1.3889598 0 1 1 -11.3642162,0 5.6821079,1.3889598 0 1 1 11.3642162,0 z"
       sodipodi:ry="1.3889598"
       sodipodi:rx="5.6821079"
       sodipodi:cy="16.595173"
       sodipodi:cx="8.4600277"
       id="path3970"
       style="fill:#000000;fill-opacity:1;fill-rule:evenodd;stroke:none"
       sodipodi:type="arc" />
    <path
       inkscape:transform-center-y="5.0508465"
       transform="matrix(0,0.88888889,0.88888889,0,20.041642,1037.3923)"
       d="m 14.142136,16.595173 a 5.6821079,1.3889598 0 1 1 -11.3642162,0 5.6821079,1.3889598 0 1 1 11.3642162,0 z"
       sodipodi:ry="1.3889598"
       sodipodi:rx="5.6821079"
       sodipodi:cy="16.595173"
       sodipodi:cx="8.4600277"
       id="path2997"
       style="fill:#000000;fill-opacity:1;fill-rule:evenodd;stroke:none"
       sodipodi:type="arc" />
    <path
       sodipodi:type="arc"
       style="fill:#000000;fill-opacity:1;fill-rule:evenodd;stroke:none"
       id="path3003"
       sodipodi:cx="8.4600277"
       sodipodi:cy="16.595173"
       sodipodi:rx="5.6821079"
       sodipodi:ry="1.3889598"
       d="m 14.142136,16.595173 a 5.6821079,1.3889598 0 1 1 -11.3642162,0 5.6821079,1.3889598 0 1 1 11.3642162,0 z"
       transform="matrix(-1,0,0,1,26.30482,1012.786)" />
    <path
       transform="matrix(-1,0,0,1,26.30482,1033.7467)"
       d="m 14.142136,16.595173 a 5.6821079,1.3889598 0 1 1 -11.3642162,0 5.6821079,1.3889598 0 1 1 11.3642162,0 z"
       sodipodi:ry="1.3889598"
       sodipodi:rx="5.6821079"
       sodipodi:cy="16.595173"
       sodipodi:cx="8.4600277"
       id="path3005"
       style="fill:#000000;fill-opacity:1;fill-rule:evenodd;stroke:none"
       sodipodi:type="arc" />
  </g>
</svg>
