<?xml version="1.0" encoding="UTF-8" standalone="no"?>
<!-- Created with Inkscape (http://www.inkscape.org/) -->

<svg
   xmlns:dc="http://purl.org/dc/elements/1.1/"
   xmlns:cc="http://creativecommons.org/ns#"
   xmlns:rdf="http://www.w3.org/1999/02/22-rdf-syntax-ns#"
   xmlns:svg="http://www.w3.org/2000/svg"
   xmlns="http://www.w3.org/2000/svg"
   xmlns:sodipodi="http://sodipodi.sourceforge.net/DTD/sodipodi-0.dtd"
   xmlns:inkscape="http://www.inkscape.org/namespaces/inkscape"
   width="36"
   height="25"
   id="svg2"
   version="1.1"
   inkscape:version="0.48.2 r9819"
   sodipodi:docname="hrzprestar.svg">
  <defs
     id="defs4" />
  <sodipodi:namedview
     id="base"
     pagecolor="#ffffff"
     bordercolor="#666666"
     borderopacity="1.0"
     inkscape:pageopacity="0.0"
     inkscape:pageshadow="2"
     inkscape:zoom="7.9195959"
     inkscape:cx="8.8989555"
     inkscape:cy="18.916783"
     inkscape:document-units="px"
     inkscape:current-layer="layer1"
     showgrid="false"
     width="33px"
     inkscape:window-width="1078"
     inkscape:window-height="593"
     inkscape:window-x="0"
     inkscape:window-y="0"
     inkscape:window-maximized="0" />
  <metadata
     id="metadata7">
    <rdf:RDF>
      <cc:Work
         rdf:about="">
        <dc:format>image/svg+xml</dc:format>
        <dc:type
           rdf:resource="http://purl.org/dc/dcmitype/StillImage" />
        <dc:title />
      </cc:Work>
    </rdf:RDF>
  </metadata>
  <g
     inkscape:label="Layer 1"
     inkscape:groupmode="layer"
     id="layer1"
     transform="translate(0,-1027.3622)">
    <path
       style="fill:none;stroke:#000000;stroke-width:0.5;stroke-linecap:butt;stroke-linejoin:miter;stroke-miterlimit:4;stroke-opacity:1;stroke-dasharray:1.5, 0.5;stroke-dashoffset:0"
       d="m 0.6886873,1039.5816 c 34.5272827,0 34.3537777,0 34.3537777,0"
       id="path3937"
       inkscape:connector-curvature="0" />
    <path
       inkscape:connector-curvature="0"
       id="path3939"
       d="m 12.327441,1029.1737 c 0,21.6454 0,21.5367 0,21.5367"
       style="fill:none;stroke:#000000;stroke-width:0.5;stroke-linecap:butt;stroke-linejoin:miter;stroke-miterlimit:4;stroke-opacity:1;stroke-dasharray:1.5, 0.5;stroke-dashoffset:0" />
    <path
       style="fill:none;stroke:#000000;stroke-width:0.5;stroke-linecap:butt;stroke-linejoin:miter;stroke-miterlimit:4;stroke-opacity:1;stroke-dasharray:1.5, 0.5;stroke-dashoffset:0"
       d="m 23.775838,1029.1737 c 0,21.6454 0,21.5367 0,21.5367"
       id="path3952"
       inkscape:connector-curvature="0" />
    <path
       inkscape:connector-curvature="0"
       id="path3960"
       d="m 0.6886873,1029.3538 c 34.5272827,0 34.3537777,0 34.3537777,0"
       style="fill:none;stroke:#000000;stroke-width:0.5;stroke-linecap:butt;stroke-linejoin:miter;stroke-miterlimit:4;stroke-opacity:1;stroke-dasharray:1.5, 0.5;stroke-dashoffset:0" />
    <path
       inkscape:connector-curvature="0"
       id="path3962"
       d="m 0.6886873,1050.4407 c 34.5272827,0 34.3537777,0 34.3537777,0"
       style="fill:none;stroke:#000000;stroke-width:0.5;stroke-linecap:butt;stroke-linejoin:miter;stroke-miterlimit:4;stroke-opacity:1;stroke-dasharray:1.5, 0.5;stroke-dashoffset:0" />
    <path
       sodipodi:type="arc"
       style="fill:#000000;fill-opacity:1;fill-rule:evenodd;stroke:none"
       id="path3964"
       sodipodi:cx="8.4600277"
       sodipodi:cy="16.595173"
       sodipodi:rx="5.6821079"
       sodipodi:ry="1.3889598"
       d="m 14.142136,16.595173 c 0,0.767101 -2.543967,1.38896 -5.6821083,1.38896 -3.1381416,0 -5.6821079,-0.621859 -5.6821079,-1.38896 0,-0.767101 2.5439663,-1.38896 5.6821079,-1.38896 3.1381413,0 5.6821083,0.621859 5.6821083,1.38896 z"
       transform="translate(-1.8940361,1023.1401)" />
    <path
       transform="translate(21.086935,1023.1401)"
       d="m 14.142136,16.595173 c 0,0.767101 -2.543967,1.38896 -5.6821083,1.38896 -3.1381416,0 -5.6821079,-0.621859 -5.6821079,-1.38896 0,-0.767101 2.5439663,-1.38896 5.6821079,-1.38896 3.1381413,0 5.6821083,0.621859 5.6821083,1.38896 z"
       sodipodi:ry="1.3889598"
       sodipodi:rx="5.6821079"
       sodipodi:cy="16.595173"
       sodipodi:cx="8.4600277"
       id="path3966"
       style="fill:#000000;fill-opacity:1;fill-rule:evenodd;stroke:none"
       sodipodi:type="arc" />
    <path
       sodipodi:type="arc"
       style="fill:#000000;fill-opacity:1;fill-rule:evenodd;stroke:none"
       id="path3968"
       sodipodi:cx="8.4600277"
       sodipodi:cy="16.595173"
       sodipodi:rx="5.6821079"
       sodipodi:ry="1.3889598"
       d="m 14.142136,16.595173 c 0,0.767101 -2.543967,1.38896 -5.6821083,1.38896 -3.1381416,0 -5.6821079,-0.621859 -5.6821079,-1.38896 0,-0.767101 2.5439663,-1.38896 5.6821079,-1.38896 3.1381413,0 5.6821083,0.621859 5.6821083,1.38896 z"
       transform="translate(9.5964499,1012.9123)" />
    <path
       transform="translate(9.5964499,1033.873)"
       d="m 14.142136,16.595173 c 0,0.767101 -2.543967,1.38896 -5.6821083,1.38896 -3.1381416,0 -5.6821079,-0.621859 -5.6821079,-1.38896 0,-0.767101 2.5439663,-1.38896 5.6821079,-1.38896 3.1381413,0 5.6821083,0.621859 5.6821083,1.38896 z"
       sodipodi:ry="1.3889598"
       sodipodi:rx="5.6821079"
       sodipodi:cy="16.595173"
       sodipodi:cx="8.4600277"
       id="path3970"
       style="fill:#000000;fill-opacity:1;fill-rule:evenodd;stroke:none"
       sodipodi:type="arc" />
  </g>
</svg>
